<svg width="180" height="180" viewBox="0 0 180 180" fill="none" xmlns="http://www.w3.org/2000/svg">
  <!-- Background -->
  <rect width="180" height="180" rx="40" fill="#000000"/>
  
  <!-- Brain outline -->
  <path
    d="M90 45C78.75 45 69.38 52.5 65.63 62.5C60 62.5 54.38 68.13 54.38 75.63C54.38 81.25 57.19 85.31 61.56 87.56C61.19 88.75 60 89.94 60 92.5C60 98.13 65.63 101.88 73.13 103.44C72.5 104.69 71.25 106.56 71.25 111.25C71.25 118.75 76.88 124.38 84.38 125.94C85.63 130.31 89.69 133.75 93.75 133.75C98.44 133.75 102.5 130.31 103.75 125.94C111.25 124.38 116.88 118.75 116.88 111.25C116.88 106.56 115.63 104.69 115 103.44C122.5 101.88 128.13 98.13 128.13 92.5C128.13 89.94 126.94 88.75 126.56 87.56C130.94 85.31 133.75 81.25 133.75 75.63C133.75 68.13 128.13 62.5 122.5 62.5C118.75 52.5 109.38 45 97.5 45C94.69 45 91.88 45.63 90 46.88C88.13 45.63 85.31 45 82.5 45H90Z"
    stroke="#FFFFFF"
    stroke-width="5.5"
    stroke-linecap="round"
    stroke-linejoin="round"
  />
  
  <!-- Neural dots -->
  <circle cx="82.5" cy="75" r="3.75" fill="#FFFFFF"/>
  <circle cx="97.5" cy="75" r="3.75" fill="#FFFFFF"/>
  <circle cx="90" cy="92.5" r="3.75" fill="#FFFFFF"/>
  <circle cx="82.5" cy="110" r="3.75" fill="#FFFFFF"/>
  <circle cx="97.5" cy="110" r="3.75" fill="#FFFFFF"/>
</svg>
