<svg width="192" height="192" viewBox="0 0 192 192" fill="none" xmlns="http://www.w3.org/2000/svg">
  <!-- Background -->
  <rect width="192" height="192" rx="48" fill="#000000"/>
  
  <!-- Brain outline - centered and scaled -->
  <path
    d="M96 48C84 48 74 56 70 66C64 66 58 72 58 80C58 86 61 90.4 65.6 92.8C65.2 94 64 95.2 64 98C64 104 70 108 78 109.6C77.2 111.2 76 113.4 76 118C76 126 82 132 90 133.6C91.2 138.4 95.2 142 100 142C104.8 142 108.8 138.4 110 133.6C118 132 124 126 124 118C124 113.4 122.8 111.2 122 109.6C130 108 136 104 136 98C136 95.2 134.8 94 134.4 92.8C139 90.4 142 86 142 80C142 72 136 66 130 66C126 56 116 48 104 48C101.2 48 98.4 48.8 96 50C93.6 48.8 90.8 48 88 48H96Z"
    stroke="#FFFFFF"
    stroke-width="6"
    stroke-linecap="round"
    stroke-linejoin="round"
  />
  
  <!-- Neural connection dots -->
  <circle cx="88" cy="80" r="4" fill="#FFFFFF"/>
  <circle cx="104" cy="80" r="4" fill="#FFFFFF"/>
  <circle cx="96" cy="98" r="4" fill="#FFFFFF"/>
  <circle cx="88" cy="116" r="4" fill="#FFFFFF"/>
  <circle cx="104" cy="116" r="4" fill="#FFFFFF"/>
</svg>
