<svg width="512" height="512" viewBox="0 0 512 512" fill="none" xmlns="http://www.w3.org/2000/svg">
  <!-- Background -->
  <rect width="512" height="512" rx="128" fill="#000000"/>
  
  <!-- Brain outline - centered and scaled -->
  <path
    d="M256 128C224 128 197.33 149.33 186.67 176C170.67 176 154.67 192 154.67 213.33C154.67 229.33 162.67 241.07 175.47 247.47C173.87 250.67 170.67 253.87 170.67 261.33C170.67 277.33 186.67 288 208 292.27C205.87 296.53 202.67 302.4 202.67 314.67C202.67 336 218.67 352 240 355.73C243.2 369.07 253.87 378.67 266.67 378.67C279.47 378.67 290.13 369.07 293.33 355.73C314.67 352 330.67 336 330.67 314.67C330.67 302.4 327.47 296.53 325.33 292.27C346.67 288 362.67 277.33 362.67 261.33C362.67 253.87 359.47 250.67 357.87 247.47C370.67 241.07 378.67 229.33 378.67 213.33C378.67 192 362.67 176 346.67 176C336 149.33 309.33 128 277.33 128C270.93 128 264.53 130.13 256 133.33C247.47 130.13 241.07 128 234.67 128H256Z"
    stroke="#FFFFFF"
    stroke-width="16"
    stroke-linecap="round"
    stroke-linejoin="round"
  />
  
  <!-- Neural connection dots -->
  <circle cx="234.67" cy="213.33" r="10.67" fill="#FFFFFF"/>
  <circle cx="277.33" cy="213.33" r="10.67" fill="#FFFFFF"/>
  <circle cx="256" cy="261.33" r="10.67" fill="#FFFFFF"/>
  <circle cx="234.67" cy="309.33" r="10.67" fill="#FFFFFF"/>
  <circle cx="277.33" cy="309.33" r="10.67" fill="#FFFFFF"/>
</svg>
